# xmcd
# Track frame offsets:
# 150
# 16075
# 19025
# 38725
# 54350
# 77575
#
# Disc length: 1254 seconds
# Revision: 0
# Processed by: cddbd v1.5PL3 Copyright (c) Steve Scherf et al.
# Submitted via: VisiTrax 2.9.9.209 - For more info visit www.synapsa.com
#
DISCID=3404e406
DTITLE=Long John Baldry - Midnight in New Orleans
DYEAR=1993
DGENRE=Blues Rock
TTITLE0=Midnight in New Orleans
TTITLE1=Introduction
TTITLE2=Good Morning Blues
TTITLE3=As Long As I Feel The Spirit
TTITLE4=Introduction of Band and Black Girl
TTITLE5=Ain't That Peculiar
EXTD=
EXTT0=
EXTT1=
EXTT2=
EXTT3=
EXTT4=
EXTT5=
PLAYORDER=
